<svg id="图层_1" data-name="图层 1" xmlns="http://www.w3.org/2000/svg" viewBox="0 0 120.42 140"><defs><style>.cls-1{fill:#41d63c;}.cls-2{fill:#2c2c2c;}</style></defs><title>定位</title><circle class="cls-1" cx="82.92" cy="82.5" r="37.5"/><path class="cls-2" d="M100.22,73.77A14.52,14.52,0,1,1,89.9,78.05a14.51,14.51,0,0,1,10.32-4.28m0-8.75a23.35,23.35,0,1,0,16.54,6.82A23.35,23.35,0,0,0,100.22,65Zm0,0" transform="translate(-43.58 -30)"/><path class="cls-2" d="M140.29,47a55.72,55.72,0,0,0-80.14,0,59,59,0,0,0,0,82l40.07,41,40.07-41a59,59,0,0,0,0-82Zm-6,76.2-34,35-34-35a50,50,0,0,1,0-69.56,47.43,47.43,0,0,1,68.06,0,50,50,0,0,1,0,69.56Zm0,0" transform="translate(-43.58 -30)"/></svg>