<?xml version="1.0" encoding="utf-8"?>
<!-- Generator: Adobe Illustrator 23.0.0, SVG Export Plug-In . SVG Version: 6.00 Build 0)  -->
<svg version="1.1" xmlns="http://www.w3.org/2000/svg" xmlns:xlink="http://www.w3.org/1999/xlink" x="0px" y="0px"
	 viewBox="0 0 200 200" style="enable-background:new 0 0 200 200;" xml:space="preserve">
<style type="text/css">
	.st0{display:none;}
	.st1{display:inline;fill:#41D63C;}
	.st2{fill:#41D63C;}
	.st3{display:inline;}
	.st4{fill:#2C2C2C;}
	.st5{fill:none;stroke:#2C2C2C;stroke-width:9;stroke-linecap:round;stroke-linejoin:round;stroke-miterlimit:10;}
</style>
<g id="图层_1">
	<g class="st0">
		<circle class="st1" cx="126.5" cy="112.5" r="37.5"/>
	</g>
	<g>
		<circle class="st2" cx="115.5" cy="98.5" r="41.5"/>
	</g>
	<g class="st0">
		<g class="st3">
			<path class="st4" d="M100.22,73.77c6.92,0.01,12.87,4.9,14.22,11.69c1.35,6.79-2.28,13.59-8.67,16.24
				c-6.39,2.65-13.77,0.43-17.63-5.32c-3.86-5.75-3.12-13.42,1.76-18.33C92.63,75.3,96.35,73.76,100.22,73.77 M100.22,65.02
				c-11.14,0.02-20.72,7.9-22.88,18.83c-2.16,10.93,3.7,21.87,14,26.12c10.3,4.25,22.17,0.63,28.35-8.64
				c6.18-9.27,4.95-21.62-2.94-29.49C112.38,67.45,106.42,64.99,100.22,65.02L100.22,65.02z M100.22,65.02"/>
			<path class="st4" d="M140.29,47c-10.5-10.86-24.96-17-40.07-17c-15.11,0-29.57,6.13-40.07,17c-22.1,22.86-22.1,59.12,0,81.97
				L100.22,170l40.07-41.03C162.39,106.11,162.39,69.85,140.29,47L140.29,47z M134.25,123.2l-34.03,34.99L66.19,123.2
				c-18.79-19.38-18.79-50.17,0-69.55c8.93-9.2,21.21-14.4,34.03-14.4c12.82,0,25.1,5.19,34.03,14.4
				C153.04,73.02,153.04,103.82,134.25,123.2L134.25,123.2z M134.25,123.2"/>
		</g>
	</g>
</g>
<g id="图层_2">
	<g>
		<path class="st4" d="M87.5,39c26.19,0,47.5,21.31,47.5,47.5S113.69,134,87.5,134S40,112.69,40,86.5S61.31,39,87.5,39 M87.5,30
			C56.3,30,31,55.3,31,86.5c0,31.2,25.3,56.5,56.5,56.5c31.2,0,56.5-25.3,56.5-56.5C144,55.3,118.7,30,87.5,30L87.5,30z"/>
	</g>
	<g>
		<line class="st5" x1="124.5" y1="124.5" x2="166.5" y2="166.5"/>
	</g>
</g>
</svg>
